<svg id="visual" viewBox="0 0 900 600" width="900" height="600" xmlns="http://www.w3.org/2000/svg" xmlns:xlink="http://www.w3.org/1999/xlink" version="1.1"><path d="M0 179L21.5 176.5C43 174 86 169 128.8 177.3C171.7 185.7 214.3 207.3 257.2 206.3C300 205.3 343 181.7 385.8 174.3C428.7 167 471.3 176 514.2 178.5C557 181 600 177 642.8 178.5C685.7 180 728.3 187 771.2 199.3C814 211.7 857 229.3 878.5 238.2L900 247L900 0L878.5 0C857 0 814 0 771.2 0C728.3 0 685.7 0 642.8 0C600 0 557 0 514.2 0C471.3 0 428.7 0 385.8 0C343 0 300 0 257.2 0C214.3 0 171.7 0 128.8 0C86 0 43 0 21.5 0L0 0Z" fill="#69bdfa"></path><path d="M0 190L21.5 189.8C43 189.7 86 189.3 128.8 180.2C171.7 171 214.3 153 257.2 147.3C300 141.7 343 148.3 385.8 156.7C428.7 165 471.3 175 514.2 174.8C557 174.7 600 164.3 642.8 157C685.7 149.7 728.3 145.3 771.2 140.5C814 135.7 857 130.3 878.5 127.7L900 125L900 0L878.5 0C857 0 814 0 771.2 0C728.3 0 685.7 0 642.8 0C600 0 557 0 514.2 0C471.3 0 428.7 0 385.8 0C343 0 300 0 257.2 0C214.3 0 171.7 0 128.8 0C86 0 43 0 21.5 0L0 0Z" fill="#56b8ee"></path><path d="M0 142L21.5 136.2C43 130.3 86 118.7 128.8 119.5C171.7 120.3 214.3 133.7 257.2 136C300 138.3 343 129.7 385.8 128.5C428.7 127.3 471.3 133.7 514.2 135.3C557 137 600 134 642.8 129C685.7 124 728.3 117 771.2 112.2C814 107.3 857 104.7 878.5 103.3L900 102L900 0L878.5 0C857 0 814 0 771.2 0C728.3 0 685.7 0 642.8 0C600 0 557 0 514.2 0C471.3 0 428.7 0 385.8 0C343 0 300 0 257.2 0C214.3 0 171.7 0 128.8 0C86 0 43 0 21.5 0L0 0Z" fill="#44b3e2"></path><path d="M0 99L21.5 101.8C43 104.7 86 110.3 128.8 112.2C171.7 114 214.3 112 257.2 108.7C300 105.3 343 100.7 385.8 97.8C428.7 95 471.3 94 514.2 92.7C557 91.3 600 89.7 642.8 89.8C685.7 90 728.3 92 771.2 96.2C814 100.3 857 106.7 878.5 109.8L900 113L900 0L878.5 0C857 0 814 0 771.2 0C728.3 0 685.7 0 642.8 0C600 0 557 0 514.2 0C471.3 0 428.7 0 385.8 0C343 0 300 0 257.2 0C214.3 0 171.7 0 128.8 0C86 0 43 0 21.5 0L0 0Z" fill="#33add5"></path><path d="M0 71L21.5 64.2C43 57.3 86 43.7 128.8 42.3C171.7 41 214.3 52 257.2 58.8C300 65.7 343 68.3 385.8 64.3C428.7 60.3 471.3 49.7 514.2 50.2C557 50.7 600 62.3 642.8 63.2C685.7 64 728.3 54 771.2 49.7C814 45.3 857 46.7 878.5 47.3L900 48L900 0L878.5 0C857 0 814 0 771.2 0C728.3 0 685.7 0 642.8 0C600 0 557 0 514.2 0C471.3 0 428.7 0 385.8 0C343 0 300 0 257.2 0C214.3 0 171.7 0 128.8 0C86 0 43 0 21.5 0L0 0Z" fill="#24a7c7"></path></svg>