<svg id="visual" viewBox="0 0 900 600" width="900" height="600" xmlns="http://www.w3.org/2000/svg" xmlns:xlink="http://www.w3.org/1999/xlink" version="1.1"><path d="M0 494L37.5 497.8C75 501.7 150 509.3 225 508.7C300 508 375 499 450 499.8C525 500.7 600 511.3 675 505C750 498.7 825 475.3 862.5 463.7L900 452L900 601L862.5 601C825 601 750 601 675 601C600 601 525 601 450 601C375 601 300 601 225 601C150 601 75 601 37.5 601L0 601Z" fill="#00a9ff" stroke-linecap="round" stroke-linejoin="miter"></path></svg>